<?xml version="1.0" ?><svg height="56px" version="1.1" viewBox="0 0 56 56" width="56px" xmlns="http://www.w3.org/2000/svg" xmlns:xlink="http://www.w3.org/1999/xlink"><title/><desc/><defs/><g fill="none" fill-rule="evenodd" id="Page-1" stroke="none" stroke-width="1"><g fill="#000000" fill-rule="nonzero" id="001---play"><polygon id="Shape" points="22 39.104 38.001 28.003 22 16.91"/><path d="M28,4.125 C14.8304243,4.19376862 4.20363798,14.9134441 4.24948467,28.0831195 C4.29533136,41.2527949 14.9964946,51.898223 28.1662298,51.8752983 C41.3359651,51.8523737 52.0000025,41.1697552 52,28 C51.950323,14.7860145 41.2140648,4.10567421 28,4.125 Z M39.13965,29.64746 L23.11426,40.751 C22.5100469,41.171452 21.7220197,41.2205842 21.07026,40.87844 C20.410352,40.5330027 19.9977023,39.8488491 20,39.104 L20,16.896 C19.9977195,16.1511472 20.410389,15.4670004 21.07031,15.12158 C21.7218479,14.7783999 22.5104457,14.8275676 23.11431,15.24902 L39.13965,26.353 C39.6786874,26.728221 40.0000325,27.343441 40.0000325,28.000215 C40.0000325,28.656989 39.6786874,29.272209 39.13965,29.64743 L39.13965,29.64746 Z" id="Shape"/><path d="M28,0.125 C12.6212947,0.193808325 0.203691524,12.7043573 0.249564007,28.0831481 C0.29543649,43.4619389 12.787452,55.8981865 28.1662941,55.87525 C43.5451362,55.8523134 56.0000005,43.3788592 56,28 C55.9479795,12.5778464 43.422232,0.108017439 28,0.125 Z M28,53.875 C13.7258624,53.8062083 2.20367241,42.1910968 2.24953355,27.9168671 C2.29539468,13.6426374 13.8919815,2.1018034 28.1662665,2.12473387 C42.4405514,2.14766433 53.9999997,13.7256966 54,28 C53.9494092,42.3181773 42.3182549,53.8934126 28,53.875 Z" id="Shape"/></g></g></svg>