<?xml version="1.0" ?><svg height="56px" version="1.1" viewBox="0 0 56 56" width="56px" xmlns="http://www.w3.org/2000/svg" xmlns:xlink="http://www.w3.org/1999/xlink"><title/><desc/><defs/><g fill="none" fill-rule="evenodd" id="Page-1" stroke="none" stroke-width="1"><g fill="#000000" fill-rule="nonzero" id="017---Reload"><polygon id="Shape" points="15 31.113 18.196 26 11.805 26"/><path d="M28,4.125 C14.8304243,4.19376862 4.20363798,14.9134441 4.24948467,28.0831195 C4.29533136,41.2527949 14.9964946,51.898223 28.1662298,51.8752983 C41.3359651,51.8523737 52.0000025,41.1697552 52,28 C51.950323,14.7860145 41.2140648,4.10567421 28,4.125 Z M37.89746,37.897 C35.2735481,40.5239615 31.7129289,42.0000298 28,42.0000298 C24.2870711,42.0000298 20.7264519,40.5239615 18.10254,37.897 C17.7120582,37.5065181 17.7120582,36.8734219 18.10254,36.48294 C18.4930219,36.0924582 19.1261181,36.0924582 19.5166,36.48294 C23.2982191,40.2909619 29.1437862,41.1359457 33.8489812,38.5547031 C38.5541762,35.9734605 40.9825486,30.5894416 39.8029561,25.3539632 C38.6233635,20.1184847 34.1207141,16.296077 28.7631909,15.9820403 C23.4056678,15.6680036 18.4872788,18.9381874 16.7041,24 L18.19531,24 C18.9224584,23.9995639 19.5925138,24.3939475 19.945097,25.0298957 C20.2976801,25.665844 20.2771942,26.4430782 19.8916,27.05957 L16.69531,32.17334 C16.330117,32.7581176 15.6893065,33.1133757 14.9998641,33.113276 C14.3104217,33.1131764 13.669714,32.7577331 13.30469,32.17285 L10.1084,27.06006 L10.1084,27.05957 C9.72280582,26.4430782 9.70231994,25.665844 10.054903,25.0298957 C10.4074862,24.3939475 11.0775416,23.9995639 11.80469,24 L14.58594,24 C16.2525416,18.4049897 21.2164327,14.4317518 27.0406103,14.0309321 C32.864788,13.6301124 38.3261791,16.8858827 40.7435352,22.1998352 C43.1608912,27.5137877 42.0265692,33.7699964 37.89746,37.897 Z" id="Shape"/><path d="M28,0.125 C12.6212947,0.193808325 0.203691524,12.7043573 0.249564007,28.0831481 C0.29543649,43.4619389 12.787452,55.8981865 28.1662941,55.87525 C43.5451362,55.8523134 56.0000005,43.3788592 56,28 C55.9479795,12.5778464 43.422232,0.108017439 28,0.125 Z M28,53.875 C13.7258624,53.8062083 2.20367241,42.1910968 2.24953355,27.9168671 C2.29539468,13.6426374 13.8919815,2.1018034 28.1662665,2.12473387 C42.4405514,2.14766433 53.9999997,13.7256966 54,28 C53.9494092,42.3181773 42.3182549,53.8934126 28,53.875 Z" id="Shape"/></g></g></svg>